<svg width="115" height="123" viewBox="0 0 115 123" fill="none" xmlns="http://www.w3.org/2000/svg">
<path d="M81.3732 17.8617C84.4896 17.8617 87.3371 19.1361 89.3682 21.1672C91.4291 23.2282 92.6737 26.0458 92.6737 29.1621C92.6737 32.2785 91.3993 35.126 89.3682 37.1571C87.3072 39.218 84.4896 40.4626 81.3732 40.4626C78.2569 40.4626 75.4094 39.1882 73.3783 37.1571C71.3173 35.0961 70.0728 32.2785 70.0728 29.1621C70.0728 26.0458 71.3472 23.1983 73.3783 21.1672C75.4392 19.1062 78.2668 17.8617 81.3732 17.8617Z" fill="#82F3FF"/>
<path d="M73.4081 78.7547L77.1019 56.0642C77.4006 54.3616 79.0036 53.1768 80.7061 53.4755C81.3633 53.5751 81.9507 53.9037 82.4087 54.3318L99.434 72.2233C97.2635 71.7056 95.0134 71.4368 92.6836 71.4368C85.2861 71.4268 78.5357 74.1947 73.4081 78.7547Z" fill="#82F3FF"/>
<path d="M7.79582 0H102.66C104.82 0 106.752 0.886115 108.166 2.28996C109.58 3.70376 110.456 5.66516 110.456 7.79582V77.5002C108.006 75.5985 105.239 74.0752 102.242 73.0397V9.68752C102.242 9.2594 102.082 8.90097 101.784 8.64211C101.525 8.38324 101.127 8.18412 100.738 8.18412H9.6477C9.21958 8.18412 8.86115 8.34342 8.60228 8.64211C8.34342 8.90097 8.14429 9.28927 8.14429 9.68752V79.4019H8.17416L40.0046 48.9255C41.279 47.7506 43.2802 47.8801 44.4252 49.1545C44.436 49.1653 44.4429 49.1774 44.4492 49.1885C44.4603 49.208 44.4695 49.2242 44.4949 49.2242L71.2576 80.8853C66.5482 86.0427 63.6708 92.9126 63.6708 100.45C63.6708 103.725 64.2184 106.871 65.2141 109.809H7.79582C5.63529 109.809 3.70376 108.922 2.28996 107.519C0.876159 106.115 0 104.143 0 102.013V7.79582C0 5.63529 0.886115 3.70376 2.28996 2.28996C3.6938 0.876158 5.66516 0 7.79582 0Z" fill="#065E7C"/>
<path fill-rule="evenodd" clip-rule="evenodd" d="M92.4745 78.904C104.472 78.904 114.199 88.6314 114.199 100.629C114.199 112.626 104.472 122.354 92.4745 122.354C80.4771 122.354 70.7498 112.626 70.7498 100.629C70.7498 88.6314 80.4771 78.904 92.4745 78.904ZM105.069 108.922L85.1965 87.4167C87.357 86.222 89.8361 85.5449 92.4845 85.5549C100.808 85.5549 107.558 92.3053 107.558 100.629C107.558 103.695 106.642 106.543 105.069 108.922ZM79.8798 92.3252L99.7526 113.831C97.5921 115.026 95.113 115.703 92.4646 115.693C84.1411 115.693 77.3907 108.942 77.3907 100.619C77.3907 97.5523 78.3067 94.7048 79.8798 92.3252Z" fill="#750310"/>
</svg>
